<svg>
<!-- arrow -->
    <symbol width="13" height="8" viewBox="0 0 13 8" fill="none" xmlns="http://www.w3.org/2000/svg" id='header-arrow'>
        <path d="M11.4671 -1.45631e-07L6.5 4.94673L1.53293 -1.94682e-08L-2.45768e-08 1.52661L6.5 8L13 1.52661L11.4671 -1.45631e-07Z" fill="#0F0F0F"/>
    </symbol>
    <!-- search -->
    <symbol width="" height="" viewBox="0 0 25 25" fill="" xmlns="http://www.w3.org/2000/svg" id='search'>
       <path d="M11.0095 0C4.93901 0 0 4.93901 0 11.0095C0 17.0803 4.93901 22.0189 11.0095 22.0189C17.0803 22.0189 22.0189 17.0803 22.0189 11.0095C22.0189 4.93901 17.0803 0 11.0095 0ZM11.0095 19.9865C6.05962 19.9865 2.03252 15.9594 2.03252 11.0095C2.03252 6.05967 6.05962 2.03252 11.0095 2.03252C15.9593 2.03252 19.9864 6.05962 19.9864 11.0095C19.9864 15.9593 15.9593 19.9865 11.0095 19.9865Z" fill=""/>
        <path d="M24.702 23.2652L18.8754 17.4386C18.4784 17.0416 17.8354 17.0416 17.4384 17.4386C17.0414 17.8353 17.0414 18.479 17.4384 18.8756L23.265 24.7022C23.4634 24.9007 23.7233 25 23.9835 25C24.2433 25 24.5034 24.9007 24.702 24.7022C25.099 24.3055 25.099 23.6619 24.702 23.2652Z" fill=""/>
    </symbol>
    <!-- header logo -->
    <symbol width="" height="" viewBox="0 0 122 104" fill="" xmlns="http://www.w3.org/2000/svg" id='header-logo'>
        <path d="M60.5 0L29 18.1895V54.5684L60.5 72.7579L92 54.5684V18.1895L60.5 0ZM85.0369 50.5895L60.4526 64.7526L35.9158 50.5895V22.1684L60.5 7.9579L85.0842 22.1684V50.5895H85.0369Z" fill=""/>
        <path d="M79.1632 25.4369V47.3211L66.2316 54.9474V42.8684H54.7685V54.9474L41.8369 47.3211V25.4369L54.7685 17.8105V30.2211H66.2316V17.8105L79.1632 25.4369Z" fill=""/>
        <path d="M15.3114 103.689H11.6584V96.5385H3.61411V103.689H0V86.7065H3.61411V93.3907H11.6195V86.7065H15.2725V103.689H15.3114Z" fill=""/>
        <path d="M35.1302 103.689H23.1221V86.7065H35.1302V89.8932H26.7362V93.4684H34.9748V96.655H26.7362V100.502H35.1302V103.689Z" fill=""/>
        <path d="M50.6367 104C48.0719 104 45.8956 103.184 44.1857 101.552C42.4758 99.9194 41.582 97.8209 41.582 95.2172C41.582 92.6135 42.437 90.515 44.1857 88.8828C45.8956 87.2507 48.0719 86.4346 50.6367 86.4346C53.8234 86.4346 56.1939 87.8336 57.7483 90.5927L54.6394 92.1083C54.2508 91.4088 53.7068 90.787 53.0073 90.3207C52.2689 89.8544 51.4917 89.6212 50.6367 89.6212C49.0823 89.6212 47.7999 90.1653 46.8283 91.2145C45.8179 92.2638 45.3127 93.5851 45.3127 95.2172C45.3127 96.8494 45.8179 98.1707 46.8283 99.2199C47.8387 100.269 49.1211 100.813 50.6367 100.813C51.4917 100.813 52.2689 100.58 53.0073 100.114C53.7456 99.6474 54.2897 99.0645 54.6394 98.3261L57.7483 99.8417C56.1162 102.601 53.7456 104 50.6367 104Z" fill=""/>
        <path d="M71.9319 103.689H68.2789V89.8932H63.3047V86.7065H76.8673V89.8932H71.9319V103.689Z" fill=""/>
        <path d="M91.7127 104C89.1479 104 87.0105 103.184 85.3395 101.513C83.6684 99.8417 82.8135 97.7432 82.8135 95.2172C82.8135 92.6524 83.6684 90.5539 85.3395 88.9217C87.0105 87.2507 89.1479 86.4346 91.7127 86.4346C94.2776 86.4346 96.415 87.2507 98.086 88.9217C99.757 90.5539 100.612 92.6912 100.612 95.2561C100.612 97.8209 99.757 99.9195 98.086 101.59C96.415 103.184 94.2776 104 91.7127 104ZM87.982 99.2199C88.9147 100.269 90.1583 100.813 91.7127 100.813C93.2672 100.813 94.5107 100.269 95.4434 99.2199C96.3761 98.1707 96.8813 96.8494 96.8813 95.2172C96.8813 93.5851 96.4149 92.2638 95.4434 91.2145C94.5107 90.1653 93.2283 89.6212 91.7127 89.6212C90.1583 89.6212 88.9147 90.1653 87.982 91.2145C87.0494 92.2638 86.583 93.5851 86.583 95.2172C86.583 96.8105 87.0494 98.1318 87.982 99.2199Z" fill=""/>
        <path d="M121.364 103.689H117.206L113.864 97.6654H111.222V103.689H107.607V86.7065H115.574C117.323 86.7065 118.722 87.2117 119.732 88.2221C120.743 89.2325 121.287 90.5538 121.287 92.186C121.287 93.585 120.937 94.712 120.198 95.5669C119.46 96.4219 118.605 96.9659 117.556 97.238L121.364 103.689ZM115.03 94.4788C115.768 94.4788 116.39 94.2845 116.856 93.857C117.323 93.4296 117.556 92.8855 117.556 92.186C117.556 91.4865 117.323 90.9424 116.856 90.515C116.39 90.0875 115.768 89.8932 115.03 89.8932H111.222V94.4788H115.03Z" fill=""/>
    </symbol>
    <!-- heart -->
    <symbol width="" height="" viewBox="0 0 28 25" fill="" xmlns="http://www.w3.org/2000/svg" id='heart'>
        <path d="M14 25C13.6014 25 13.2171 24.8551 12.9176 24.5918C11.7864 23.5992 10.6959 22.6664 9.73373 21.8436L9.72882 21.8393C6.90793 19.4268 4.47198 17.3434 2.7771 15.2911C0.882477 12.9967 0 10.8214 0 8.44489C0 6.13595 0.78891 4.00581 2.22125 2.44657C3.67068 0.868907 5.65952 0 7.82202 0C9.43829 0 10.9185 0.512812 12.2214 1.52407C12.8789 2.03452 13.4749 2.65925 14 3.38794C14.5253 2.65925 15.1211 2.03452 15.7788 1.52407C17.0817 0.512812 18.5619 0 20.1782 0C22.3405 0 24.3295 0.868907 25.779 2.44657C27.2113 4.00581 28 6.13595 28 8.44489C28 10.8214 27.1177 12.9967 25.2231 15.2909C23.5282 17.3434 21.0925 19.4266 18.272 21.8389C17.3082 22.663 16.2159 23.5973 15.0822 24.5922C14.7829 24.8551 14.3984 25 14 25ZM7.82202 1.64606C6.12308 1.64606 4.56235 2.32652 3.42694 3.56224C2.27466 4.81661 1.63998 6.55057 1.63998 8.44489C1.63998 10.4436 2.38019 12.2312 4.03983 14.2408C5.64392 16.1834 8.02988 18.2239 10.7924 20.5866L10.7976 20.5909C11.7634 21.417 12.8582 22.3534 13.9977 23.3533C15.144 22.3515 16.2405 21.4135 17.2082 20.5862C19.9706 18.2235 22.3563 16.1834 23.9604 14.2408C25.6198 12.2312 26.36 10.4436 26.36 8.44489C26.36 6.55057 25.7253 4.81661 24.5731 3.56224C23.4379 2.32652 21.8769 1.64606 20.1782 1.64606C18.9336 1.64606 17.791 2.0431 16.782 2.82604C15.8829 3.52408 15.2565 4.40649 14.8893 5.02393C14.7005 5.34143 14.3681 5.53095 14 5.53095C13.6319 5.53095 13.2995 5.34143 13.1107 5.02393C12.7437 4.40649 12.1173 3.52408 11.218 2.82604C10.209 2.0431 9.06638 1.64606 7.82202 1.64606Z" fill=""/>
    </symbol>
    <!-- shop -->
    <symbol width="" height="" viewBox="0 0 30 25" fill="" xmlns="http://www.w3.org/2000/svg" id='shop'>
        <path d="M29.0096 8.32689C28.6208 7.83907 28.0374 7.55921 27.409 7.55921H21.738L18.6628 0.517694C18.4722 0.0811109 17.9636 -0.118402 17.527 0.0723689C17.0903 0.263025 16.8909 0.771614 17.0817 1.20825L19.8552 7.55927H9.59154L12.3651 1.20825C12.5558 0.771614 12.3564 0.263083 11.9198 0.0723689C11.4832 -0.118402 10.9746 0.0809958 10.784 0.517694L7.70879 7.55927H2.03775C1.40936 7.55927 0.826008 7.83907 0.437161 8.32695C0.0554463 8.80592 -0.0854035 9.42166 0.0507303 10.0165L3.0792 23.2445C3.29068 24.1682 4.10777 24.8132 5.06623 24.8132H24.3805C25.339 24.8132 26.1561 24.1682 26.3676 23.2445L29.396 10.0164C29.5322 9.4216 29.3913 8.80586 29.0096 8.32689ZM24.3805 23.0878H5.06623C4.91974 23.0878 4.79143 22.9917 4.76112 22.8593L1.73265 9.63141C1.70889 9.5276 1.74875 9.44949 1.78648 9.40228C1.82145 9.35834 1.90064 9.28466 2.03775 9.28466H6.95531L6.72934 9.80211C6.53868 10.2387 6.73802 10.7473 7.17466 10.938C7.28704 10.9871 7.40414 11.0103 7.51945 11.0103C7.85199 11.0103 8.16889 10.8169 8.31049 10.4927L8.83806 9.28478H20.6088L21.1364 10.4927C21.278 10.817 21.5949 11.0103 21.9274 11.0103C22.0427 11.0103 22.1598 10.9871 22.2722 10.938C22.7089 10.7473 22.9083 10.2387 22.7175 9.80211L22.4916 9.28466H27.4091C27.5462 9.28466 27.6254 9.35834 27.6604 9.40228C27.6981 9.44955 27.738 9.52765 27.7142 9.63135L24.6858 22.8594C24.6554 22.9917 24.527 23.0878 24.3805 23.0878Z" fill=""/>
    </symbol>
    <!-- login -->
    <symbol width="" height="" viewBox="0 0 22 25" fill="" xmlns="http://www.w3.org/2000/svg" id='login'>
        <path d="M10.7178 12.0426C12.3722 12.0426 13.8046 11.4492 14.9754 10.2785C16.1457 9.10797 16.7393 7.67574 16.7393 6.02112C16.7393 4.36707 16.1459 2.93465 14.9752 1.76373C13.8045 0.593376 12.372 0 10.7178 0C9.06316 0 7.63094 0.593376 6.4604 1.76392C5.28986 2.93446 4.69629 4.36687 4.69629 6.02112C4.69629 7.67574 5.28986 9.10816 6.4604 10.2787C7.63132 11.4491 9.06374 12.0426 10.7178 12.0426ZM7.49647 2.7998C8.39464 1.90163 9.44826 1.46503 10.7178 1.46503C11.9871 1.46503 13.0409 1.90163 13.9393 2.7998C14.8375 3.69816 15.2743 4.75197 15.2743 6.02112C15.2743 7.29065 14.8375 8.34427 13.9393 9.24263C13.0409 10.141 11.9871 10.5776 10.7178 10.5776C9.44864 10.5776 8.39502 10.1408 7.49647 9.24263C6.59811 8.34446 6.16132 7.29065 6.16132 6.02112C6.16132 4.75197 6.59811 3.69816 7.49647 2.7998Z" fill=""/>
        <path d="M21.2534 19.2237C21.2196 18.7366 21.1513 18.2052 21.0508 17.6441C20.9493 17.0787 20.8187 16.5443 20.6623 16.0558C20.5005 15.5509 20.281 15.0523 20.0092 14.5746C19.7275 14.0786 19.3964 13.6468 19.0248 13.2915C18.6363 12.9197 18.1606 12.6209 17.6105 12.4028C17.0623 12.186 16.4549 12.0761 15.805 12.0761C15.5498 12.0761 15.303 12.1808 14.8264 12.4912C14.533 12.6825 14.1899 12.9037 13.8069 13.1484C13.4794 13.3571 13.0357 13.5526 12.4878 13.7296C11.9531 13.9026 11.4103 13.9903 10.8743 13.9903C10.3388 13.9903 9.79592 13.9026 9.26091 13.7296C8.7135 13.5528 8.26966 13.3573 7.94274 13.1486C7.56337 12.9062 7.22005 12.6849 6.92231 12.491C6.44604 12.1806 6.19923 12.0759 5.94403 12.0759C5.29401 12.0759 4.68671 12.186 4.13873 12.403C3.58903 12.6207 3.11314 12.9195 2.72424 13.2917C2.35268 13.6472 2.02157 14.0788 1.74004 14.5746C1.46863 15.0523 1.2489 15.5507 1.08716 16.056C0.930946 16.5445 0.800293 17.0787 0.698822 17.6441C0.598114 18.2044 0.530022 18.736 0.496262 19.2243C0.463074 19.7017 0.446289 20.1986 0.446289 20.7006C0.446289 22.0056 0.861137 23.0621 1.6792 23.8412C2.48715 24.6101 3.55603 24.9999 4.85627 24.9999H16.8939C18.1938 24.9999 19.2627 24.6101 20.0708 23.8412C20.8891 23.0626 21.3039 22.0058 21.3039 20.7004C21.3037 20.1967 21.2867 19.6998 21.2534 19.2237ZM19.0607 22.7798C18.5268 23.2879 17.818 23.5349 16.8937 23.5349H4.85627C3.93178 23.5349 3.22301 23.2879 2.68933 22.78C2.16576 22.2816 1.91132 21.6012 1.91132 20.7006C1.91132 20.2321 1.92677 19.7696 1.95767 19.3256C1.98781 18.8899 2.04942 18.4114 2.14078 17.9029C2.231 17.4007 2.34582 16.9294 2.48238 16.5027C2.61342 16.0936 2.79214 15.6884 3.01377 15.2982C3.2253 14.9263 3.46867 14.6072 3.73723 14.3501C3.98843 14.1095 4.30505 13.9127 4.67812 13.7651C5.02316 13.6285 5.41093 13.5537 5.83188 13.5425C5.88319 13.5698 5.97455 13.6218 6.12256 13.7183C6.42373 13.9146 6.77087 14.1385 7.15462 14.3836C7.58721 14.6594 8.14454 14.9085 8.81039 15.1235C9.49113 15.3436 10.1854 15.4554 10.8745 15.4554C11.5637 15.4554 12.2581 15.3436 12.9385 15.1237C13.6049 14.9083 14.162 14.6594 14.5952 14.3832C14.9879 14.1322 15.3253 13.9148 15.6265 13.7183C15.7745 13.622 15.8659 13.5698 15.9172 13.5425C16.3383 13.5537 16.7261 13.6285 17.0713 13.7651C17.4442 13.9127 17.7608 14.1097 18.012 14.3501C18.2806 14.607 18.5239 14.9261 18.7355 15.2984C18.9573 15.6884 19.1362 16.0938 19.2671 16.5025C19.4038 16.9297 19.5188 17.4009 19.6088 17.9027C19.7 18.4121 19.7618 18.8909 19.792 19.3258V19.3261C19.823 19.7685 19.8387 20.2308 19.8389 20.7006C19.8387 21.6014 19.5842 22.2816 19.0607 22.7798Z" fill=""/>
    </symbol>
    <!-- fullStar -->
    <symbol width="26" height="25" viewBox="0 0 26 25" fill="none" xmlns="http://www.w3.org/2000/svg" id='fullStar'>
       <path d="M21.0321 24.3333L13 20.254L4.96795 24.3333L6.5019 15.6936L0 9.57462L8.98121 8.31443L13 0.333252L17.0188 8.31443L26 9.57462L19.4981 15.6935L21.0321 24.3333Z" fill="black"/>
    </symbol>
    <!-- emptyStar -->
    <symbol width="26" height="24" viewBox="0 0 26 24" fill="none" xmlns="http://www.w3.org/2000/svg" id='emptyStar'>
       <path d="M21.0321 24L13 19.9208L4.96795 24L6.5019 15.3603L0 9.24136L8.98121 7.98118L13 0L17.0188 7.98118L26 9.24136L19.4981 15.3603L21.0321 24ZM13 18.2582L19.0087 21.3098L17.8612 14.8462L22.7249 10.269L16.0016 9.32564L13 3.36447L9.99836 9.32559L3.2751 10.2689L8.13879 14.8462L6.99123 21.3097L13 18.2582Z" fill="black"/>
    </symbol>
    <!-- close -->
    <symbol width="40" height="40" viewBox="0 0 40 40" fill="none" xmlns="http://www.w3.org/2000/svg" id='close'>
       <circle cx="20" cy="20" r="18.5" fill="white" stroke="#0F0F0F" stroke-width="3"/>
        <line x1="13.7071" y1="13.2929" x2="26.435" y2="26.0208" stroke="black" stroke-width="2"/>
        <line y1="-1" x2="18" y2="-1" transform="matrix(-0.707107 0.707107 0.707107 0.707107 27 14)" stroke="black" stroke-width="2"/>
    </symbol>
    <!-- viber -->
    <symbol width="53" height="56" viewBox="0 0 53 56" fill="" xmlns="http://www.w3.org/2000/svg" id='viber'>
       <path d="M46.8736 5.42518C45.4918 4.15218 39.8993 0.0938201 27.4304 0.0394185C27.4304 0.0394185 12.7311 -0.841888 5.57186 5.72983C1.58966 9.71203 0.186095 15.5548 0.0337706 22.7902C-0.118554 30.0256 -0.30352 43.5825 12.7638 47.26H12.7746L12.7638 52.8743C12.7638 52.8743 12.6767 55.1483 14.1782 55.6053C15.9843 56.171 17.0506 54.4411 18.7806 52.5805C19.7272 51.5578 21.0328 50.0563 22.0229 48.9139C30.9665 49.6646 37.832 47.9455 38.6154 47.6953C40.4216 47.1077 50.6382 45.8021 52.292 32.2452C54.0111 18.2531 51.4651 9.41826 46.8736 5.42518ZM48.386 31.2224C46.9824 42.538 38.7025 43.2561 37.1792 43.7457C36.5264 43.9524 30.4878 45.4539 22.9042 44.9643C22.9042 44.9643 17.2465 51.7863 15.4838 53.5598C14.9072 54.1364 14.2761 54.082 14.287 52.9396C14.287 52.1888 14.3305 43.6151 14.3305 43.6151C14.3196 43.6151 14.3196 43.6151 14.3305 43.6151C3.25435 40.5469 3.90717 29.0029 4.02685 22.9643C4.14654 16.9257 5.28897 11.9751 8.66187 8.64576C14.7222 3.15119 27.202 3.96722 27.202 3.96722C37.745 4.01074 42.7935 7.18779 43.9685 8.25407C47.8528 11.5834 49.833 19.5478 48.386 31.2224ZM33.2623 22.4311C33.3058 23.3668 31.9023 23.4321 31.8587 22.4964C31.7391 20.1027 30.6184 18.9386 28.3117 18.808C27.376 18.7536 27.4631 17.35 28.3879 17.4044C31.4235 17.5676 33.11 19.3085 33.2623 22.4311ZM35.471 23.6606C35.5798 19.0474 32.6965 15.4351 27.2237 15.0325C26.2989 14.9672 26.3968 13.5637 27.3216 13.629C33.6322 14.0859 36.9943 18.4272 36.8746 23.6933C36.8637 24.629 35.4492 24.5854 35.471 23.6606ZM40.5848 25.1186C40.5956 26.0543 39.1812 26.0652 39.1812 25.1295C39.1159 16.262 33.2079 11.4311 26.0378 11.3767C25.1129 11.3658 25.1129 9.97316 26.0378 9.97316C34.0566 10.0276 40.5086 15.5656 40.5848 25.1186ZM39.3553 35.7922V35.8139C38.1802 37.8812 35.9824 40.1661 33.7193 39.4371L33.6975 39.4044C31.4018 38.7625 25.9942 35.9771 22.5778 33.2571C20.8152 31.8644 19.2049 30.2215 17.9646 28.6438C16.8439 27.2402 15.7123 25.5756 14.6134 23.5736C12.2959 19.3846 11.7845 17.5132 11.7845 17.5132C11.0555 15.2501 13.3295 13.0523 15.4077 11.8772H15.4294C16.4304 11.355 17.3879 11.529 18.0298 12.3015C18.0298 12.3015 19.379 13.9118 19.9557 14.7061C20.4997 15.446 21.2287 16.6319 21.6095 17.2956C22.2732 18.4816 21.8597 19.6893 21.2069 20.1898L19.9013 21.2343C19.2376 21.7674 19.3246 22.7575 19.3246 22.7575C19.3246 22.7575 21.2613 30.08 28.4967 31.9297C28.4967 31.9297 29.4868 32.0167 30.02 31.353L31.0645 30.0474C31.565 29.3945 32.7727 28.9811 33.9586 29.6448C35.558 30.5479 37.5927 31.9514 38.9418 33.2244C39.7035 33.8446 39.8775 34.7912 39.3553 35.7922Z" fill=""/>
    </symbol>
    <!-- telegram -->
    <symbol width="48" height="42" viewBox="0 0 48 42" fill="" xmlns="http://www.w3.org/2000/svg" id='telegram'>
       <path d="M18.9678 27.4794L18.1997 38.8219C19.2986 38.8219 19.7745 38.3263 20.3451 37.7312L25.4968 32.5616L36.1715 40.7699C38.1292 41.9155 39.5085 41.3123 40.0367 38.8788L47.0435 4.40444L47.0454 4.40241C47.6664 1.36366 45.9989 0.175379 44.0914 0.920848L2.9054 17.4776C0.0945405 18.6232 0.1371 20.2685 2.42758 21.014L12.9572 24.4529L37.4154 8.38366C38.5664 7.58335 39.613 8.02616 38.7521 8.82647L18.9678 27.4794Z" fill=""/>
    </symbol>
    <!-- phone -->
    <symbol width="24" height="24" viewBox="0 0 24 24" fill="" xmlns="http://www.w3.org/2000/svg" id='phone'>
       <path d="M4.86349 15.9536C7.23964 18.7833 10.1 21.0112 13.3647 22.5877C14.6077 23.1745 16.27 23.8707 18.122 23.9901C18.2368 23.995 18.3467 24 18.4615 24C19.7045 24 20.7028 23.5723 21.5165 22.6921C21.5215 22.6871 21.5315 22.6772 21.5365 22.6672C21.826 22.3191 22.1555 22.0058 22.4999 21.6726C22.7345 21.4488 22.9742 21.2151 23.2038 20.9764C24.2671 19.8724 24.2671 18.47 23.1938 17.4007L20.1937 14.4119C19.6845 13.8848 19.0755 13.6063 18.4365 13.6063C17.7975 13.6063 17.1835 13.8848 16.6594 14.407L14.8723 16.1873C14.7075 16.0928 14.5378 16.0083 14.3781 15.9287C14.1784 15.8293 13.9937 15.7348 13.829 15.6303C12.2016 14.6009 10.724 13.2582 9.31129 11.5325C8.59744 10.6324 8.11822 9.8765 7.78376 9.10568C8.253 8.68297 8.69229 8.24037 9.1166 7.80771C9.26636 7.65354 9.42111 7.49938 9.57586 7.34521C10.115 6.80812 10.4045 6.18649 10.4045 5.55491C10.4045 4.92333 10.12 4.3017 9.57586 3.76461L8.08827 2.28264C7.91355 2.10858 7.74882 1.93949 7.57909 1.76544C7.24963 1.42727 6.90518 1.07915 6.56573 0.765852C6.05157 0.263572 5.44755 0 4.80858 0C4.17461 0 3.56559 0.263572 3.03146 0.770825L1.16448 2.63075C0.485583 3.30709 0.101206 4.12764 0.021335 5.0775C-0.0735114 6.26606 0.146133 7.52922 0.715211 9.05595C1.5888 11.4182 2.90666 13.6113 4.86349 15.9536ZM1.23936 5.18193C1.29927 4.52051 1.55385 3.9685 2.03308 3.49109L3.89007 1.64111C4.1796 1.36262 4.49908 1.2184 4.80858 1.2184C5.11309 1.2184 5.42259 1.36262 5.70713 1.65106C6.04158 1.95939 6.35607 2.28264 6.69552 2.62578C6.86525 2.79983 7.03997 2.97389 7.21468 3.15292L8.70227 4.63489C9.01177 4.94322 9.17151 5.25653 9.17151 5.56486C9.17151 5.87319 9.01177 6.18649 8.70227 6.49482C8.54752 6.64898 8.39278 6.80812 8.23803 6.96229C7.77378 7.42976 7.33948 7.87236 6.86026 8.29507C6.85027 8.30501 6.84528 8.30999 6.8353 8.31993C6.42097 8.7327 6.48586 9.12557 6.5857 9.42395C6.59069 9.43887 6.59569 9.44882 6.60068 9.46374C6.98506 10.3838 7.51919 11.259 8.35284 12.3034C9.85041 14.1434 11.4279 15.5707 13.165 16.6697C13.3797 16.809 13.6093 16.9184 13.824 17.0278C14.0237 17.1272 14.2084 17.2217 14.3731 17.3261C14.3931 17.3361 14.408 17.346 14.428 17.356C14.5927 17.4405 14.7525 17.4803 14.9122 17.4803C15.3116 17.4803 15.5711 17.2267 15.656 17.1421L17.523 15.2822C17.8125 14.9938 18.127 14.8396 18.4365 14.8396C18.8159 14.8396 19.1254 15.0734 19.3201 15.2822L22.3302 18.276C22.9292 18.8728 22.9242 19.5193 22.3152 20.1509C22.1056 20.3746 21.8859 20.5885 21.6513 20.8123C21.3019 21.1504 20.9375 21.4986 20.608 21.8914C20.0339 22.5081 19.35 22.7965 18.4665 22.7965C18.3816 22.7965 18.2917 22.7915 18.2069 22.7866C16.5695 22.6821 15.047 22.0456 13.9038 21.5035C10.7989 20.0066 8.07329 17.8831 5.81196 15.1877C3.94997 12.9548 2.697 10.8761 1.86834 8.64816C1.35418 7.28056 1.15949 6.18152 1.23936 5.18193Z" fill=""/>
    </symbol>
    <!-- facebook -->
    <symbol width="17" height="27" viewBox="0 0 17 27" fill="" xmlns="http://www.w3.org/2000/svg" id='facebook'>
       <path d="M15.2498 7.17199C15.6642 7.17199 16 6.84393 16 6.43957V1.73242C16 1.32787 15.6642 1 15.2498 1H9.62479C6.99582 1 4.85701 3.08817 4.85701 5.65488V10.4141H1.75019C1.33583 10.4141 1 10.742 1 11.1465V15.8535C1 16.258 1.33583 16.5859 1.75019 16.5859H4.85701V25.2676C4.85701 25.6721 5.19283 26 5.60719 26H10.4285C10.8429 26 11.1787 25.6721 11.1787 25.2676V16.5859H14.2855C14.6432 16.5859 14.9511 16.3395 15.0212 15.9971L15.9853 11.2901C16.0295 11.075 15.9725 10.8518 15.8298 10.6821C15.6874 10.5125 15.4745 10.4141 15.2498 10.4141H11.1787V7.17199H15.2498ZM10.4285 11.8789H14.3347L13.6705 15.1211H10.4285C10.0141 15.1211 9.67832 15.4489 9.67832 15.8535V24.5352H6.35738V15.8535C6.35738 15.4489 6.02155 15.1211 5.60719 15.1211H2.50037V11.8789H5.60719C6.02155 11.8789 6.35738 11.5511 6.35738 11.1465V5.65488C6.35738 3.89593 7.82317 2.46484 9.62479 2.46484H14.4996V5.70715H10.4285C10.0141 5.70715 9.67832 6.03502 9.67832 6.43957V11.1465C9.67832 11.5511 10.0141 11.8789 10.4285 11.8789Z" fill=""/>
        <path d="M16.15 6.43957C16.15 6.93011 15.7436 7.32199 15.2498 7.32199H11.3287V10.2641H15.2498C15.5181 10.2641 15.7733 10.3816 15.9447 10.5856C15.9447 10.5856 15.9447 10.5856 15.9447 10.5856L15.8298 10.6821C15.9725 10.8518 16.0295 11.075 15.9853 11.2901L16.15 6.43957ZM16.15 6.43957V1.73242C16.15 1.24166 15.7436 0.85 15.2498 0.85H9.62479C6.91639 0.85 4.70701 3.00195 4.70701 5.65488V10.2641H1.75019C1.25639 10.2641 0.85 10.6558 0.85 11.1465V15.8535C0.85 16.3442 1.25639 16.7359 1.75019 16.7359H4.70701V25.2676C4.70701 25.7583 5.1134 26.15 5.60719 26.15H10.4285C10.9223 26.15 11.3287 25.7583 11.3287 25.2676V16.7359H14.2855C14.712 16.7359 15.0833 16.4417 15.1682 16.0272L16.1323 11.3203L16.15 6.43957ZM10.4285 12.0289H14.1509L13.5481 14.9711H10.4285C9.93471 14.9711 9.52832 15.3627 9.52832 15.8535V24.3852H6.50738V15.8535C6.50738 15.3627 6.10099 14.9711 5.60719 14.9711H2.65037V12.0289H5.60719C6.10099 12.0289 6.50738 11.6373 6.50738 11.1465V5.65488C6.50738 3.98214 7.90261 2.61484 9.62479 2.61484H14.3496V5.55715H10.4285C9.93471 5.55715 9.52832 5.94881 9.52832 6.43957V11.1465C9.52832 11.6373 9.93471 12.0289 10.4285 12.0289Z" stroke="" stroke-opacity="0.4" stroke-width="0.3"/>
    </symbol>
    <!-- footer telegram -->
    <symbol width="20" height="21" viewBox="0 0 20 21" fill="" xmlns="http://www.w3.org/2000/svg" id='footer-telegram'>
       <g clip-path="url(#clip0_258_38)">
        <path d="M7.84765 13.2834L7.51682 18.1694C7.99015 18.1694 8.19515 17.9559 8.44098 17.6995L10.6601 15.4726L15.2585 19.0085C16.1018 19.502 16.696 19.2421 16.9235 18.1939L19.9418 3.34336L19.9426 3.34249C20.2101 2.03349 19.4918 1.52161 18.6701 1.84274L0.928482 8.97486C-0.282352 9.46836 -0.264018 10.1771 0.722648 10.4982L5.25848 11.9796L15.7943 5.05749C16.2901 4.71274 16.741 4.90349 16.3701 5.24824L7.84765 13.2834Z" fill=""/>
        </g>
        <defs>
        <clipPath id="clip0_258_38">
        <rect width="20" height="21" fill=""/>
        </clipPath>
        </defs>
    </symbol>
    <!-- footer viber -->
    <symbol width="23" height="24" viewBox="0 0 23 24" fill="" xmlns="http://www.w3.org/2000/svg" id='footer-viber'>
       <path d="M20.1917 2.337C19.5965 1.78863 17.1874 0.0404148 11.8162 0.0169803C11.8162 0.0169803 5.48417 -0.36266 2.40019 2.46823C0.684776 4.18364 0.0801641 6.70052 0.0145473 9.81731C-0.0510694 12.9341 -0.130747 18.774 5.49823 20.3582H5.50292L5.49823 22.7766C5.49823 22.7766 5.46074 23.7562 6.10753 23.953C6.88556 24.1968 7.34488 23.4515 8.09009 22.6501C8.49786 22.2095 9.06029 21.5627 9.48679 21.0706C13.3394 21.394 16.2969 20.6534 16.6343 20.5457C17.4124 20.2926 21.8134 19.7301 22.5258 13.8902C23.2663 7.86287 22.1696 4.0571 20.1917 2.337ZM20.8432 13.4497C20.2386 18.3241 16.6718 18.6334 16.0157 18.8443C15.7344 18.9334 13.1332 19.5801 9.86643 19.3692C9.86643 19.3692 7.42924 22.3079 6.66996 23.0719C6.42155 23.3203 6.14971 23.2969 6.1544 22.8047C6.1544 22.4813 6.17315 18.7881 6.17315 18.7881C6.16846 18.7881 6.16846 18.7881 6.17315 18.7881C1.40187 17.4663 1.68309 12.4935 1.73464 9.8923C1.7862 7.29107 2.27833 5.15852 3.73127 3.72433C6.34188 1.35744 11.7178 1.70896 11.7178 1.70896C16.2594 1.7277 18.4341 3.09628 18.9403 3.5556C20.6135 4.98979 21.4665 8.42061 20.8432 13.4497ZM14.3284 9.66264C14.3471 10.0657 13.7425 10.0938 13.7238 9.69077C13.6722 8.65964 13.1895 8.15814 12.1958 8.1019C11.7928 8.07847 11.8303 7.47386 12.2286 7.49729C13.5363 7.56759 14.2628 8.3175 14.3284 9.66264ZM15.2798 10.1923C15.3267 8.20501 14.0847 6.64896 11.7271 6.47554C11.3287 6.44742 11.3709 5.84281 11.7693 5.87093C14.4877 6.06778 15.936 7.93786 15.8844 10.2063C15.8797 10.6094 15.2704 10.5907 15.2798 10.1923ZM17.4827 10.8203C17.4874 11.2234 16.8781 11.2281 16.8781 10.825C16.8499 7.00516 14.3049 4.92418 11.2163 4.90074C10.8179 4.89605 10.8179 4.29613 11.2163 4.29613C14.6705 4.31956 17.4499 6.7052 17.4827 10.8203ZM16.953 15.4182V15.4275C16.4469 16.3181 15.5001 17.3023 14.5252 16.9883L14.5159 16.9742C13.5269 16.6977 11.1975 15.4978 9.72583 14.3261C8.96655 13.7262 8.27288 13.0185 7.73858 12.3389C7.25583 11.7343 6.76839 11.0172 6.29501 10.1548C5.2967 8.35031 5.07641 7.54416 5.07641 7.54416C4.76239 6.56928 5.74195 5.62253 6.63715 5.11634H6.64653C7.07772 4.89137 7.49017 4.96636 7.7667 5.29913C7.7667 5.29913 8.34788 5.99279 8.59628 6.33494C8.83063 6.65365 9.14465 7.16452 9.30869 7.45042C9.59459 7.96129 9.41649 8.48154 9.13528 8.69714L8.57285 9.14708C8.28695 9.37674 8.32444 9.80325 8.32444 9.80325C8.32444 9.80325 9.15871 12.9575 12.2755 13.7543C12.2755 13.7543 12.702 13.7918 12.9317 13.5059L13.3816 12.9435C13.5972 12.6623 14.1175 12.4842 14.6283 12.7701C15.3173 13.1591 16.1938 13.7637 16.7749 14.3121C17.103 14.5792 17.178 14.987 16.953 15.4182Z" fill=""/>
    </symbol>
    <!-- footer watsup -->
    <symbol width="24" height="24" viewBox="0 0 24 24" fill="" xmlns="http://www.w3.org/2000/svg" id='footer-watsup'>
       <path d="M20.4054 3.4875C18.1607 1.2375 15.1714 0 11.9946 0C5.4375 0 0.101786 5.33571 0.101786 11.8929C0.101786 13.9875 0.648214 16.0339 1.6875 17.8393L0 24L6.30536 22.3446C8.04107 23.2929 9.99643 23.7911 11.9893 23.7911H11.9946C18.5464 23.7911 24 18.4554 24 11.8982C24 8.72143 22.65 5.7375 20.4054 3.4875ZM11.9946 21.7875C10.2161 21.7875 8.475 21.3107 6.95893 20.4107L6.6 20.1964L2.86071 21.1768L3.85714 17.5286L3.62143 17.1536C2.63036 15.5786 2.11071 13.7625 2.11071 11.8929C2.11071 6.44464 6.54643 2.00893 12 2.00893C14.6411 2.00893 17.1214 3.0375 18.9857 4.90714C20.85 6.77679 21.9964 9.25714 21.9911 11.8982C21.9911 17.3518 17.4429 21.7875 11.9946 21.7875ZM17.4161 14.3839C17.1214 14.2339 15.6589 13.5161 15.3857 13.4196C15.1125 13.3179 14.9143 13.2696 14.7161 13.5696C14.5179 13.8696 13.95 14.5339 13.7732 14.7375C13.6018 14.9357 13.425 14.9625 13.1304 14.8125C11.3839 13.9393 10.2375 13.2536 9.08571 11.2768C8.78036 10.7518 9.39107 10.7893 9.95893 9.65357C10.0554 9.45536 10.0071 9.28393 9.93214 9.13393C9.85714 8.98393 9.2625 7.52143 9.01607 6.92679C8.775 6.34821 8.52857 6.42857 8.34643 6.41786C8.175 6.40714 7.97679 6.40714 7.77857 6.40714C7.58036 6.40714 7.25893 6.48214 6.98571 6.77679C6.7125 7.07679 5.94643 7.79464 5.94643 9.25714C5.94643 10.7196 7.0125 12.1339 7.15714 12.3321C7.30714 12.5304 9.25179 15.5304 12.2357 16.8214C14.1214 17.6357 14.8607 17.7054 15.8036 17.5661C16.3768 17.4804 17.5607 16.8482 17.8071 16.1518C18.0536 15.4554 18.0536 14.8607 17.9786 14.7375C17.9089 14.6036 17.7107 14.5286 17.4161 14.3839Z" fill=""/>
    </symbol>
    <!-- footer insta -->
    <symbol width="23" height="24" viewBox="0 0 23 24" fill="" xmlns="http://www.w3.org/2000/svg" id='instagram'>
       <g clip-path="url(#clip0_258_40)">
        <path d="M16.8741 -0.0991891V-0.1H16.7741H6.22588C2.73368 -0.1 -0.1 2.86313 -0.1 6.49657V17.5036C-0.1 21.1368 2.73368 24.1 6.22588 24.1H16.7743C20.2663 24.1 23.1 21.1368 23.1 17.5036V6.49657C23.1 2.89787 20.3202 -0.0432687 16.8741 -0.0991891ZM21.5516 17.5036C21.5516 20.2587 19.4044 22.493 16.7741 22.493H6.22588C3.59556 22.493 1.44836 20.2587 1.44836 17.5036V6.49657C1.44836 3.74129 3.59556 1.50698 6.22588 1.50698H16.7743C19.4044 1.50698 21.5516 3.74129 21.5516 6.49657V17.5036Z" fill="" stroke="" stroke-width="0.2"/>
        <path d="M11.4998 5.33774C7.97286 5.33774 5.11094 8.33035 5.11094 12C5.11094 15.6697 7.97286 18.6624 11.4998 18.6624C15.0268 18.6624 17.8887 15.6697 17.8887 12C17.8887 8.33035 15.0268 5.33774 11.4998 5.33774ZM11.4998 17.0554C8.83492 17.0554 6.65929 14.7916 6.65929 12C6.65929 9.2087 8.83492 6.94472 11.4998 6.94472C14.1649 6.94472 16.3403 9.2087 16.3403 12C16.3403 14.7916 14.1649 17.0554 11.4998 17.0554Z" fill="" stroke="" stroke-width="0.2"/>
        <path d="M17.9393 3.00718C16.8554 3.00718 15.9811 3.92594 15.9811 5.04626C15.9811 6.16676 16.8554 7.08553 17.9393 7.08553C19.0233 7.08553 19.8978 6.16677 19.8978 5.04626C19.8978 3.92574 19.0233 3.00718 17.9393 3.00718ZM17.9393 5.47836C17.7174 5.47836 17.5294 5.28842 17.5294 5.04626C17.5294 4.80394 17.7174 4.61416 17.9393 4.61416C18.1615 4.61416 18.3495 4.80396 18.3495 5.04626C18.3495 5.2884 18.1615 5.47836 17.9393 5.47836Z" fill="" stroke="" stroke-width="0.2"/>
        </g>
        <defs>
        <clipPath id="clip0_258_40">
        <rect width="23" height="24" fill=""/>
        </clipPath>
        </defs>                                     
    </symbol>
    <!-- footer mail -->
    <symbol width="25" height="17" viewBox="0 0 25 17" fill="" xmlns="http://www.w3.org/2000/svg" id='mail'>
       <path d="M2.34377 0H22.6562C23.9487 0 25 0.953208 25 2.12501V14.875C25 16.0468 23.9487 17 22.6562 17H2.34377C1.05133 17 0 16.0468 0 14.875V2.12501C0 0.953208 1.05133 0 2.34377 0ZM2.34377 1.41666C2.23762 1.41666 2.13664 1.43663 2.04432 1.4715L12.5 9.6877L22.9557 1.4715C22.8634 1.43667 22.7624 1.41666 22.6563 1.41666H2.34377ZM2.34377 15.5833H22.6562C23.0873 15.5833 23.4375 15.2658 23.4375 14.8749V2.96821L13.0119 11.1604C12.8647 11.2759 12.6823 11.3333 12.5 11.3333C12.3177 11.3333 12.1353 11.2759 11.9881 11.1604L1.56249 2.96821V14.875C1.56255 15.2658 1.91271 15.5833 2.34377 15.5833Z" fill=""/>
        <path d="M23.6375 2.5567L23.3139 2.81095L12.8885 11.003L23.6375 2.5567ZM23.6375 2.5567V2.96821M23.6375 2.5567V2.96821M23.6375 2.96821V14.8749C23.6375 15.3943 23.1788 15.7833 22.6562 15.7833H2.34377C1.82114 15.7833 1.36256 15.3943 1.36249 14.875V2.96821V2.5567M23.6375 2.96821L1.36249 2.5567M1.36249 2.5567L1.68606 2.81095M1.36249 2.5567L1.68606 2.81095M1.68606 2.81095L12.1115 11.003C12.2209 11.0888 12.3589 11.1333 12.5 11.1333C12.641 11.1333 12.779 11.0888 12.8884 11.0031L1.68606 2.81095ZM1.92075 1.62875L1.64198 1.40969L1.97365 1.2844C2.0875 1.24139 2.21238 1.21666 2.34377 1.21666H22.6563C22.7877 1.21666 22.9126 1.24146 23.0263 1.28437L23.3582 1.40957L23.0793 1.62875L12.6236 9.84496L12.5 9.94206L12.3764 9.84496L1.92075 1.62875ZM22.6562 0.2H2.34377C1.1429 0.2 0.200001 1.08165 0.200001 2.12501V14.875C0.200001 15.9183 1.1429 16.8 2.34377 16.8H22.6562C23.8571 16.8 24.8 15.9183 24.8 14.875V2.12501C24.8 1.08165 23.8571 0.2 22.6562 0.2Z" stroke="" stroke-opacity="0.4" stroke-width="0.4"/>
    </symbol>
</svg>